HIERARCHY
ROOT hip
{
	OFFSET 0.000000 0.000000 0.000000 
	CHANNELS 6 Xposition Yposition Zposition Xrotation Zrotation Yrotation
	JOINT abdomen
	{
		OFFSET 0.000000 3.402643 0.000000 
		CHANNELS 3 Xrotation Zrotation Yrotation
		JOINT chest
		{
			OFFSET 0.000000 8.438565 -0.680529 
			CHANNELS 3 Xrotation Zrotation Yrotation
			JOINT neck
			{
				OFFSET 0.000000 10.207942 -0.272212 
				CHANNELS 3 Xrotation Zrotation Yrotation
				JOINT head
				{
					OFFSET 0.000000 3.130431 0.000000 
					CHANNELS 3 Xrotation Zrotation Yrotation
					End Site
					{
						OFFSET 0.000000 3.130435 0.000000 
					}
				}
			}
			JOINT lCollar
			{
				OFFSET 3.470700 6.669187 -0.816635 
				CHANNELS 3 Yrotation Zrotation Xrotation
				JOINT lShldr
				{
					OFFSET 3.198488 0.000000 0.000000 
					CHANNELS 3 Zrotation Yrotation Xrotation
					JOINT lForeArm
					{
						OFFSET 10.139888 0.000000 0.000000 
						CHANNELS 3 Yrotation Zrotation Xrotation
						JOINT lHand
						{
							OFFSET 8.370511 0.000000 0.000000 
							CHANNELS 3 Zrotation Yrotation Xrotation
							End Site
							{
								OFFSET 4.083176 0.000000 0.000000 
							}
						}
					}
				}
			}
			JOINT rCollar
			{
				OFFSET -3.470700 6.669187 -0.816635 
				CHANNELS 3 Yrotation Zrotation Xrotation
				JOINT rShldr
				{
					OFFSET -3.198488 0.000000 0.000000 
					CHANNELS 3 Zrotation Yrotation Xrotation
					JOINT rForeArm
					{
						OFFSET -10.139888 0.000000 0.000000 
						CHANNELS 3 Yrotation Zrotation Xrotation
						JOINT rHand
						{
							OFFSET -8.370511 0.000000 0.000000 
							CHANNELS 3 Zrotation Yrotation Xrotation
							End Site
							{
								OFFSET -4.083176 0.000000 0.000000 
							}
						}
					}
				}
			}
		}
	}
	JOINT lThigh
	{
		OFFSET 5.308129 -1.633274 1.361059 
		CHANNELS 3 Xrotation Zrotation Yrotation
		JOINT lShin
		{
			OFFSET -2.041588 -20.007561 0.000000 
			CHANNELS 3 Xrotation Zrotation Yrotation
			JOINT lFoot
			{
				OFFSET 0.000000 -19.190928 -1.224953 
				CHANNELS 3 Xrotation Yrotation Zrotation
				End Site
				{
					OFFSET 0.000000 -2.449906 4.627600 
				}
			}
		}
	}
	JOINT rThigh
	{
		OFFSET -5.308129 -1.633274 1.361059 
		CHANNELS 3 Xrotation Zrotation Yrotation
		JOINT rShin
		{
			OFFSET 2.041588 -20.007561 0.000000 
			CHANNELS 3 Xrotation Zrotation Yrotation
			JOINT rFoot
			{
				OFFSET 0.000000 -19.190928 -1.224953 
				CHANNELS 3 Xrotation Yrotation Zrotation
				End Site
				{
					OFFSET 0.000000 -2.449906 4.627600 
				}
			}
		}
	}
}
MOTION
Frames: 6
Frame Time: 0.016667
35.186802 44.811535 15.837711 -6.357810 3.232000 -108.456001 -17.818399 -0.223800 -4.908490 21.328400 9.247220 -2.481870 16.895500 18.484200 -18.455099 14.224600 10.671100 -10.080600 2.000000 -2.000000 0.000000 -86.073402 -6.848190 170.738007 28.672199 -0.334801 0.065656 0.045088 -0.012076 -141.238007 -2.000000 2.000000 0.000000 82.171501 -1.029590 152.009003 -34.111698 0.328042 0.076676 -0.087150 0.082742 -167.966995 -13.427663 -6.397983 10.479418 27.193583 2.602755 2.129777 -12.779708 8.340608 3.968177 -24.567142 -12.775455 1.456980 38.499660 -2.441336 -2.798929 -12.886250 -7.879472 -1.132672 
35.130634 44.845894 15.642355 -6.142750 3.252740 -108.153000 -17.437500 -0.441874 -4.849910 21.810499 8.455040 -2.470990 16.563601 19.110800 -18.621300 14.180800 10.836200 -10.127500 2.000000 -2.000000 0.000000 -85.361000 -7.481300 171.442001 29.336300 -0.334032 0.067042 0.045353 -0.015183 -142.350998 -2.000000 2.000000 0.000000 81.506798 -0.208069 151.434998 -34.180000 0.327951 0.076811 -0.086089 0.080954 -167.223999 -13.201193 -5.887965 10.835443 27.172150 2.614597 2.113378 -12.826074 7.668679 3.800804 -24.184175 -12.989285 2.031320 38.123833 -2.476050 -2.758887 -13.019830 -8.764380 -1.416305 
35.125801 44.813850 15.442056 -6.269720 3.222840 -107.921997 -17.389400 0.140599 -4.990250 21.724400 9.304740 -2.466750 16.478500 18.774700 -18.875700 14.277000 10.746200 -10.184900 2.000000 -2.000000 0.000000 93.720703 -172.130005 -7.834200 30.068701 -0.333166 0.068559 0.045546 -0.017087 -143.035004 -2.000000 2.000000 0.000000 79.054703 0.574830 150.645996 -34.267899 0.327833 0.076984 -0.086882 0.082296 -167.781006 -13.125303 -5.715545 11.226805 27.208345 2.644293 2.109853 -12.931068 7.087045 3.662313 -24.376896 -13.669595 2.361362 37.610767 -2.521283 -2.734595 -11.796051 -9.417526 -1.433831 
35.130634 44.792610 15.217155 -6.747370 2.967620 -108.084999 -17.528099 0.355303 -5.001410 21.329800 9.862400 -2.463830 15.958800 18.692499 -19.052500 14.052000 10.850300 -10.258900 2.000000 -2.000000 0.000000 93.154099 -172.404999 -6.944840 31.055000 -0.331970 0.070586 0.045587 -0.017468 -143.171997 -2.000000 2.000000 0.000000 77.012604 1.182180 149.738998 -34.541401 0.327464 0.077522 -0.087931 0.084027 -168.503998 -12.907471 -5.987032 11.668664 27.130209 2.640726 2.110376 -12.791959 6.982510 3.651234 -24.299398 -14.610070 3.149718 37.410183 -2.566729 -2.694330 -11.798936 -10.165353 -1.650293 
35.088955 44.836365 15.095492 -6.592300 3.191690 -107.848999 -17.169100 0.574817 -5.331190 21.844500 9.665570 -2.566740 15.451300 18.868900 -19.011801 14.007900 11.006000 -10.142100 2.000000 -2.000000 0.000000 92.958397 -171.703995 -6.240050 31.865601 -0.330960 0.072236 0.045672 -0.018229 -143.445007 -2.000000 2.000000 0.000000 75.029800 2.804190 149.292999 -35.127300 0.326666 0.078670 -0.089560 0.096386 -169.597000 -12.933686 -5.703738 11.475225 26.883209 2.652222 2.097077 -12.603204 6.888660 3.632539 -24.358843 -15.144033 2.953320 37.053230 -2.614126 -2.667260 -11.017593 -10.650880 -1.695347 
35.057163 44.801495 14.901821 -7.061500 3.149800 -107.547997 -17.167000 0.368563 -4.991710 21.555401 9.031850 -2.459270 15.164000 18.742001 -19.788900 13.859100 10.741400 -10.479500 2.000000 -2.000000 0.000000 93.553497 -171.740005 -3.271380 33.223000 -0.329218 0.074966 0.046116 -0.021756 -144.714996 -2.000000 2.000000 0.000000 73.698997 3.756010 147.048996 -35.058998 0.326759 0.078537 -0.089575 0.096409 -169.606995 -12.913342 -5.972976 11.649752 26.866360 2.625933 2.101634 -12.540455 6.553761 3.554900 -24.223410 -16.317719 3.510181 36.084431 -2.696457 -2.592652 -10.409296 -11.252404 -1.742856 
